<?xml version="1.0" encoding="UTF-8"?>
<svg width="200" height="200" version="1.1" viewBox="0 0 52.917 52.917" xmlns="http://www.w3.org/2000/svg">
 <g display="none">
  <rect x="-13.135" y="-7.485" width="84.667" height="74.083" fill="none" style="paint-order:stroke fill markers"/>
 </g>
 <g transform="translate(-76.635 -113.99)" stroke-linecap="square">
  <path d="m124.75 122.42c-0.98798 0.8897-2.1259 3.857-2.6273 4.7666s-2.0661 4.4444-3.0992 6.6665c-11.753 0.41436-18.836 1.7855-25.432 5.5732-2.854 1.6389-7.7442 4.7163-10.151 7.3199-0.87594 0.94765-1.4227 1.8327-1.4227 2.5625-1.9e-5 8.6235 13.446 10.149 40.625 10.149 4.3224 0 7.0293-0.4623 11.701-1.0201 0.62067-0.0741 4.5278 5.5751 5.1326 5.4985 0.23127-0.0292 7.9486 0.62355 7.8262 0.14031-0.14444-0.56999-2.6962-4.8409-3.735-5.5229-0.67337-0.44206-1.6414-0.55571-1.4768-0.60307 0.72341-0.20814 1.4472-0.41627 2.1706-0.62442 0 0 6.8173-0.43862 9.8298-0.26227 1.406 0.0823 2.7869 0.40984 4.1803 0.61452 0.56254 0.0826 2.4581 2.2112 2.946 2.5724 0.99663 0.73781 1.214 0.76884 2.3398 1.338 1.008 0.50968 2.363 0.71039 3.1625 0.47194 1.5962-0.47613-0.27983-3.0947-1.3632-4.1612-0.51439-0.50637-2.0242-0.77003-2.0242-0.77003-0.50586-0.19302-1.3102-0.20652-1.1657-0.20357 3.7556 0.0698 7.5015 0.26282 8.6374 0.47269 2.6681 0.49299 9.9656 4.144 11.242 3.411 4.0547-2.3289 9.3274-9.5107 9.3274-13.062-1e-5 -3.1156-5.9957-10.89-9.3274-13.531-1.1692-0.92657-8.9065 2.3996-11.242 2.089l-8.2158-1.0925c-0.18367-0.0245 3.262-0.62124 3.3294-0.83561 0.39921-1.2686 0.37138-2.6976-0.36367-3.806-0.47883-0.72204-2.5501-0.53102-3.3683-0.24627-0.55162 0.19196-2.1244 1.1923-2.5739 1.5652-1.4409 1.1952-3.2601 2.9124-3.2601 2.9124-3.6545-0.38659-7.2534-0.77405-10.225-1.1086-4.3992-0.49515-8.3068-0.14518-13.181-0.0328-0.091-2.4144 0.31243-7.4573-0.60306-8.1647s-3.7406-3.8648-5.2576-4.0621-1.3473 0.0953-2.3353 0.98501z" fill="#374845" stroke="#374548" stroke-width=".5069" style="paint-order:stroke fill markers"/>
  <circle cx="93.038" cy="145.32" r="1.7048" fill="#93aca7" stroke="#93aca7" stroke-width=".27883" style="paint-order:stroke fill markers"/>
 </g>
 <g fill="#b7c4c8">
  <path d="m26.855 39.228c0.18186 0.31996-0.4407 0.63987-0.78072 0.78072-0.60107 0.24897-1.8567 0.6436-1.9518 0-0.09214-0.62357 1.2029-0.37821 1.8102-0.54686 0.30559-0.08486 0.76555-0.50958 0.92228-0.23385z" style="paint-order:stroke fill markers"/>
  <path d="m33.075 34.795c0.39761 1.1507-2.0198 1.4595-3.1989 1.7629-0.4824 0.12412-1.3181 0.4659-1.4943 0-0.218-0.57638 0.82907-0.95957 1.386-1.2234 1.0094-0.47823 2.9425-1.5952 3.3073-0.53946z" style="paint-order:stroke fill markers"/>
  <path d="m30.759 25.565c-0.23451 0.55353-1.0525 0.62261-1.6398 0.75066-0.63566 0.13858-1.7739 0.6258-1.9518 0-0.33911-1.1931 1.9948-2.369 3.1648-1.9571 0.40238 0.14164 0.59322 0.81368 0.42682 1.2065z" style="paint-order:stroke fill markers"/>
  <path d="m22.171 25.175c-0.08339 0.35934-0.53249 0.65286-0.96364 0.82678-0.47351 0.19101-1.3552 0.52109-1.6009 0.16472-0.48258-0.69968 1.1501-1.8602 2.188-1.7085 0.33865 0.04953 0.4353 0.46413 0.37663 0.71696z" style="paint-order:stroke fill markers"/>
  <path d="m19.438 37.666c-0.05227 0.5081-0.81462 0.74203-1.3071 0.87751-0.56589 0.15567-1.6009 0.50309-1.8647-0.0212-0.37125-0.73786 1.0202-1.5786 1.8424-1.6571 0.51498-0.04916 1.3824 0.28615 1.3294 0.80075z" style="paint-order:stroke fill markers"/>
  <path d="m37.542 38.863c0.24282 1.0777-1.9804 0.99296-2.8967 1.6101-0.94953 0.6396-1.7469 2.8261-2.6744 2.155-1.1616-0.84059 0.31187-3.2477 1.5165-4.0253 1.1378-0.73447 3.7569-1.061 4.0546 0.26022z" style="paint-order:stroke fill markers"/>
  <path d="m38.466 29.119c0.0118 0.36787-0.94118 2.5417-1.2812 2.6826-0.60106 0.24897-3.0729-0.943-3.3031-1.5515-0.28472-0.75282 1.9563-0.84791 2.7611-0.84716 0.41074 3.84e-4 1.8108-0.69445 1.8232-0.2839z" style="paint-order:stroke fill markers"/>
  <path d="m46.373 31.421c0.0118 0.36786-0.44069 0.63988-0.78072 0.78072-0.60106 0.24897-1.7216 0.60851-1.9518 0-0.28472-0.75282 1.0054-1.5986 1.8102-1.5979 0.41074 3.84e-4 0.90988 0.40662 0.92228 0.81717z" style="paint-order:stroke fill markers"/>
  <path d="m43.354 39.085c0.0118 0.36787 1.4111 1.9411 1.0711 2.082-0.60106 0.24897-2.2722-1.4435-2.5023-2.052-0.28472-0.75282 2.1064-2.6997 2.9113-2.699 0.41074 3.83e-4 -1.4925 2.2584-1.4801 2.669z" style="paint-order:stroke fill markers"/>
  <path d="m44.421 25.565c0.0118 0.36787-0.44069 0.63988-0.78072 0.78072-0.60106 0.24897-1.7216 0.60851-1.9518 0-0.28472-0.75282 1.0054-1.5986 1.8102-1.5979 0.41074 3.83e-4 0.90988 0.40662 0.92228 0.81717z" style="paint-order:stroke fill markers"/>
  <path d="m26.855 31.421c0.0118 0.36786-0.44069 0.63988-0.78072 0.78072-0.60106 0.24897-1.7216 0.60851-1.9518 0-0.28472-0.75282 1.0054-1.5986 1.8102-1.5979 0.41074 3.84e-4 0.90988 0.40662 0.92228 0.81717z" style="paint-order:stroke fill markers"/>
  <path d="m51.838 25.175c0.01446 0.45089-0.33411 0.665-0.75087 0.83762-0.73671 0.30515-0.34256-0.81572-0.62465-1.5616-0.34898-0.92271-0.13411-1.9377 0.85238-1.9368 0.50344 4.71e-4 0.50795 2.1575 0.52314 2.6607z" style="paint-order:stroke fill markers"/>
  <path d="m62.057 26.857c0.0118 0.36787 0.66038 2.5918 0.32036 2.7326-0.60106 0.24897-1.7216-2.2443-1.9518-2.8528-0.28472-0.75282 1.0054-1.5986 1.8102-1.5979 0.41074 3.83e-4 -0.19119 1.3075-0.1788 1.718z" style="paint-order:stroke fill markers"/>
  <path d="m56.132 29.469c0.0118 0.36786 2.0785 1.6783 1.7385 1.8192-0.60106 0.24897-4.9593 2.0716-5.1894 1.4631-0.28472-0.75282 0.23745-2.5784 1.0423-2.5777 0.41074 3.84e-4 2.3963-1.1151 2.4086-0.70459z" style="paint-order:stroke fill markers"/>
  <path d="m71.746 37.276c0.0118 0.36787-0.44069 0.63988-0.78072 0.78072-0.60106 0.24897-1.7216 0.60851-1.9518 0-0.28472-0.75282 0.04984-4.1467 0.85468-4.146 0.41074 3.84e-4 1.8654 2.9547 1.8778 3.3652z" style="paint-order:stroke fill markers"/>
  <path d="m93.215 31.421c-0.02145 1.2465 0.80109 2.1682 1.4192 2.6454 1.0926 0.84361 3.1296 2.0619 3.5479 0 0.51757-2.5509-1.8276-5.4169-3.2906-5.4144-0.74665 0.0013-1.654 1.3778-1.6765 2.7689z" style="paint-order:stroke fill markers"/>
  <path d="m50.901 38.725c0.0118 0.36787-1.2193 1.737-1.5593 1.8778-0.60106 0.24897-1.1908-2.1873-1.4209-2.7958-0.28472-0.75282 1.5362-0.43078 2.3411-0.43002 0.41074 3.83e-4 0.62676 0.93747 0.63916 1.348z" style="paint-order:stroke fill markers"/>
  <path d="m69.9 30.035c0.0118 0.36787-1.2547-0.63415-1.5947-0.49332-0.60106 0.24897-1.0138 1.3163-1.244 0.7078-0.28472-0.75282 0.5099-3.5805 1.3148-3.5797 0.41074 3.83e-4 1.5115 2.9547 1.5239 3.3652z" style="paint-order:stroke fill markers"/>
  <path d="m67.842 23.614c0.0118 0.36787-0.44069 0.63988-0.78072 0.78072-0.60106 0.24897-1.7216 0.60851-1.9518 0-0.28472-0.75282 1.0054-1.5986 1.8102-1.5979 0.41074 3.83e-4 0.90988 0.40662 0.92228 0.81717z" style="paint-order:stroke fill markers"/>
  <path d="m73.698 27.517c0.0118 0.36787 1.0474 1.392 0.74577 1.1811-0.35476-0.24801-0.50632-0.03983-0.93915-0.04335-0.2488-0.0021-0.37327 0.37628-0.61861 0.41768-0.24418 0.04121-0.47743-0.13203-0.71803-0.19066-0.27439-0.06686-0.62647 0.07775-0.90217 0.01652-0.78572-0.17448-0.27088-1.6487 0.53397-1.6479 0.41074 3.84e-4 1.8858-0.14391 1.8982 0.26664z" style="paint-order:stroke fill markers"/>
  <path d="m77.601 25.565c0.0118 0.36787-1.2193 1.737-1.5593 1.8778-0.60106 0.24897-1.1908-2.1873-1.4209-2.7958-0.28472-0.75282 1.5362-0.43078 2.3411-0.43002 0.41074 3.83e-4 0.62676 0.93747 0.63916 1.348z" style="paint-order:stroke fill markers"/>
 </g>
 <path d="m40.67 47.641c0 2.5572-6.3968 0.79737-7.113 0.20915-0.56458-0.46376-2.4255-1.6248-2.4255-4.182 0-2.5572 0.52444-4.3249 1.2551-4.3249 0.38004 0 3.6236 1.214 5.6722 3.0644 1.8898 1.707 2.6111 4.0063 2.6111 5.2333z" fill="#374845" style="paint-order:stroke fill markers"/>
 <g transform="translate(-76.635 -113.99)" fill="#b7c8c4" stroke-linecap="square">
  <ellipse cx="101.76" cy="109.14" rx="25" ry="22.06" stroke="#b7c8c4" stroke-width=".25437" style="paint-order:stroke fill markers"/>
  <g stroke="#939dac" stroke-width=".17555">
   <ellipse cx="88.87" cy="138.81" rx="1.0733" ry="1.0733" style="paint-order:stroke fill markers"/>
   <ellipse cx="82.724" cy="129.08" rx="1.0733" ry="1.0733" style="paint-order:stroke fill markers"/>
   <ellipse cx="84.09" cy="135.41" rx="1.0733" ry="1.0733" style="paint-order:stroke fill markers"/>
  </g>
 </g>
</svg>
